<?xml version="1.0" encoding="UTF-8"?>
<!DOCTYPE score-partwise PUBLIC "-//Recordare//DTD MusicXML 3.1 Partwise//EN" "http://www.musicxml.org/dtds/partwise.dtd">
<score-partwise version="3.1">
    <part-list>
        <score-part id="P1">
            <part-name>Piano</part-name>
        </score-part>
    </part-list>
    <part id="P1">
        <measure number="1">
            <attributes>
                <divisions>1</divisions>
                <key>
                    <fifths>-3</fifths>
                </key>
                <time>
                    <beats>2</beats>
                    <beat-type>2</beat-type>
                </time>
                <clef number="1">
                    <sign>G</sign>
                    <line>2</line>
                </clef>
                <clef number="2">
                    <sign>F</sign>
                    <line>4</line>
                </clef>
            </attributes>
            <note>
                <pitch>
                    <step>C</step>
                    <octave>4</octave>
                </pitch>
                <duration>4</duration>
                <voice>1</voice>
                <type>whole</type>
                <staff>1</staff>
                <notations>
                </notations>
            </note>
            <backup>
                <duration>4</duration>
            </backup>
            <note>
                <pitch>
                    <step>C</step>
                    <octave>3</octave>
                </pitch>
                <duration>4</duration>
                <voice>5</voice>
                <type>whole</type>
                <staff>2</staff>
                <notations>
                </notations>
            </note>
            <note>
                <chord/>
                <pitch>
                    <step>E</step>
                    <alter>-1</alter>
                    <octave>3</octave>
                </pitch>
                <duration>4</duration>
                <voice>5</voice>
                <type>whole</type>
                <staff>2</staff>
                <notations>
                </notations>
            </note>
        </measure>
        <measure number="2">
            <attributes>
                <divisions>1</divisions>
            </attributes>
            <note>
                <pitch>
                    <step>D</step>
                    <octave>4</octave>
                </pitch>
                <duration>2</duration>
                <voice>1</voice>
                <type>half</type>
                <staff>1</staff>
                <notations>
                </notations>
            </note>
            <note>
                <pitch>
                    <step>E</step>
                    <alter>-1</alter>
                    <octave>4</octave>
                </pitch>
                <duration>2</duration>
                <voice>1</voice>
                <type>half</type>
                <staff>1</staff>
                <notations>
                </notations>
            </note>
            <backup>
                <duration>4</duration>
            </backup>
            <note>
                <pitch>
                    <step>F</step>
                    <octave>3</octave>
                </pitch>
                <duration>2</duration>
                <voice>5</voice>
                <type>half</type>
                <staff>2</staff>
                <notations>
                </notations>
            </note>
            <note>
                <chord/>
                <pitch>
                    <step>C</step>
                    <octave>3</octave>
                </pitch>
                <duration>2</duration>
                <tie type="start"/>
                <voice>5</voice>
                <type>half</type>
                <staff>2</staff>
                <notations>
                    <tied type="start"/>
                </notations>
            </note>
            <note>
                <pitch>
                    <step>C</step>
                    <octave>3</octave>
                </pitch>
                <duration>2</duration>
                <tie type="stop"/>
                <voice>5</voice>
                <type>half</type>
                <staff>2</staff>
                <notations>
                    <tied type="stop"/>
                </notations>
            </note>
            <note>
                <chord/>
                <pitch>
                    <step>F</step>
                    <alter>1</alter>
                    <octave>3</octave>
                </pitch>
                <duration>2</duration>
                <voice>5</voice>
                <type>half</type>
                <staff>2</staff>
                <notations>
                </notations>
            </note>
        </measure>
        <measure number="3">
            <attributes>
                <divisions>1</divisions>
            </attributes>
            <note>
                <pitch>
                    <step>E</step>
                    <octave>4</octave>
                </pitch>
                <duration>2</duration>
                <voice>1</voice>
                <type>half</type>
                <staff>1</staff>
                <notations>
                </notations>
            </note>
            <note>
                <chord/>
                <pitch>
                    <step>G</step>
                    <octave>3</octave>
                </pitch>
                <duration>2</duration>
                <voice>1</voice>
                <type>half</type>
                <staff>1</staff>
                <notations>
                </notations>
            </note>
            <note>
                <pitch>
                    <step>F</step>
                    <octave>4</octave>
                </pitch>
                <duration>2</duration>
                <voice>1</voice>
                <type>half</type>
                <staff>1</staff>
                <notations>
                </notations>
            </note>
            <note>
                <chord/>
                <pitch>
                    <step>A</step>
                    <alter>-1</alter>
                    <octave>3</octave>
                </pitch>
                <duration>2</duration>
                <voice>1</voice>
                <type>half</type>
                <staff>1</staff>
                <notations>
                </notations>
            </note>
            <backup>
                <duration>4</duration>
            </backup>
            <note>
                <pitch>
                    <step>C</step>
                    <octave>3</octave>
                </pitch>
                <duration>2</duration>
                <voice>5</voice>
                <type>half</type>
                <staff>2</staff>
                <notations>
                </notations>
            </note>
            <note>
                <pitch>
                    <step>F</step>
                    <octave>2</octave>
                </pitch>
                <duration>2</duration>
                <voice>5</voice>
                <type>half</type>
                <staff>2</staff>
                <notations>
                </notations>
            </note>
        </measure>
        <measure number="4">
            <attributes>
                <divisions>1</divisions>
            </attributes>
            <note>
                <pitch>
                    <step>G</step>
                    <octave>3</octave>
                </pitch>
                <duration>4</duration>
                <voice>1</voice>
                <type>whole</type>
                <staff>1</staff>
                <notations>
                </notations>
            </note>
            <note>
                <chord/>
                <pitch>
                    <step>E</step>
                    <alter>-1</alter>
                    <octave>4</octave>
                </pitch>
                <duration>4</duration>
                <voice>1</voice>
                <type>whole</type>
                <staff>1</staff>
                <notations>
                </notations>
            </note>
            <backup>
                <duration>4</duration>
            </backup>
            <note>
                <pitch>
                    <step>C</step>
                    <octave>3</octave>
                </pitch>
                <duration>4</duration>
                <voice>5</voice>
                <type>whole</type>
                <staff>2</staff>
                <notations>
                </notations>
            </note>
        </measure>
        <measure number="5">
            <attributes>
                <divisions>1</divisions>
            </attributes>
            <note>
                <pitch>
                    <step>E</step>
                    <alter>-1</alter>
                    <octave>4</octave>
                </pitch>
                <duration>2</duration>
                <voice>1</voice>
                <type>half</type>
                <staff>1</staff>
                <notations>
                </notations>
            </note>
            <note>
                <pitch>
                    <step>G</step>
                    <octave>4</octave>
                </pitch>
                <duration>2</duration>
                <voice>1</voice>
                <type>half</type>
                <staff>1</staff>
                <notations>
                </notations>
            </note>
            <backup>
                <duration>4</duration>
            </backup>
            <note>
                <pitch>
                    <step>G</step>
                    <octave>3</octave>
                </pitch>
                <duration>2</duration>
                <voice>5</voice>
                <type>half</type>
                <staff>2</staff>
                <notations>
                </notations>
            </note>
            <note>
                <chord/>
                <pitch>
                    <step>C</step>
                    <octave>3</octave>
                </pitch>
                <duration>2</duration>
                <tie type="start"/>
                <voice>5</voice>
                <type>half</type>
                <staff>2</staff>
                <notations>
                    <tied type="start"/>
                </notations>
            </note>
            <note>
                <pitch>
                    <step>E</step>
                    <alter>-1</alter>
                    <octave>4</octave>
                </pitch>
                <duration>2</duration>
                <voice>5</voice>
                <type>half</type>
                <staff>2</staff>
                <notations>
                </notations>
            </note>
            <note>
                <chord/>
                <pitch>
                    <step>C</step>
                    <octave>3</octave>
                </pitch>
                <duration>2</duration>
                <tie type="stop"/>
                <voice>5</voice>
                <type>half</type>
                <staff>2</staff>
                <notations>
                    <tied type="stop"/>
                </notations>
            </note>
        </measure>
        <measure number="6">
            <attributes>
                <divisions>1</divisions>
            </attributes>
            <note>
                <pitch>
                    <step>D</step>
                    <octave>4</octave>
                </pitch>
                <duration>2</duration>
                <voice>1</voice>
                <type>half</type>
                <staff>1</staff>
                <notations>
                </notations>
            </note>
            <note>
                <chord/>
                <pitch>
                    <step>F</step>
                    <octave>4</octave>
                </pitch>
                <duration>2</duration>
                <voice>1</voice>
                <type>half</type>
                <staff>1</staff>
                <notations>
                </notations>
            </note>
            <note>
                <chord/>
                <pitch>
                    <step>A</step>
                    <alter>-1</alter>
                    <octave>3</octave>
                </pitch>
                <duration>2</duration>
                <voice>1</voice>
                <type>half</type>
                <staff>1</staff>
                <notations>
                </notations>
            </note>
            <note>
                <pitch>
                    <step>C</step>
                    <octave>4</octave>
                </pitch>
                <duration>2</duration>
                <voice>1</voice>
                <type>half</type>
                <staff>1</staff>
                <notations>
                </notations>
            </note>
            <note>
                <chord/>
                <pitch>
                    <step>E</step>
                    <alter>-1</alter>
                    <octave>4</octave>
                </pitch>
                <duration>2</duration>
                <voice>1</voice>
                <type>half</type>
                <staff>1</staff>
                <notations>
                </notations>
            </note>
            <note>
                <chord/>
                <pitch>
                    <step>F</step>
                    <alter>1</alter>
                    <octave>3</octave>
                </pitch>
                <duration>2</duration>
                <voice>1</voice>
                <type>half</type>
                <staff>1</staff>
                <notations>
                </notations>
            </note>
        </measure>
        <measure number="7">
            <attributes>
                <divisions>1</divisions>
            </attributes>
            <note>
                <pitch>
                    <step>C</step>
                    <octave>4</octave>
                </pitch>
                <duration>4</duration>
                <voice>1</voice>
                <type>whole</type>
                <staff>1</staff>
                <notations>
                </notations>
            </note>
            <note>
                <chord/>
                <pitch>
                    <step>E</step>
                    <alter>-1</alter>
                    <octave>4</octave>
                </pitch>
                <duration>4</duration>
                <voice>1</voice>
                <type>whole</type>
                <staff>1</staff>
                <notations>
                </notations>
            </note>
            <backup>
                <duration>4</duration>
            </backup>
            <note>
                <pitch>
                    <step>G</step>
                    <octave>3</octave>
                </pitch>
                <duration>4</duration>
                <voice>5</voice>
                <type>whole</type>
                <staff>2</staff>
                <notations>
                </notations>
            </note>
        </measure>
        <measure number="8">
            <attributes>
                <divisions>1</divisions>
            </attributes>
            <note>
                <pitch>
                    <step>B</step>
                    <octave>3</octave>
                </pitch>
                <duration>4</duration>
                <voice>1</voice>
                <type>whole</type>
                <staff>1</staff>
                <notations>
                </notations>
            </note>
            <note>
                <chord/>
                <pitch>
                    <step>D</step>
                    <octave>4</octave>
                </pitch>
                <duration>4</duration>
                <voice>1</voice>
                <type>whole</type>
                <staff>1</staff>
                <notations>
                </notations>
            </note>
            <backup>
                <duration>4</duration>
            </backup>
            <note>
                <pitch>
                    <step>G</step>
                    <octave>2</octave>
                </pitch>
                <duration>4</duration>
                <voice>5</voice>
                <type>whole</type>
                <staff>2</staff>
                <notations>
                </notations>
            </note>
        </measure>
        <measure number="9">
            <attributes>
                <divisions>1</divisions>
            </attributes>
            <note>
                <pitch>
                    <step>E</step>
                    <alter>-1</alter>
                    <octave>4</octave>
                </pitch>
                <duration>4</duration>
                <voice>1</voice>
                <type>whole</type>
                <staff>1</staff>
                <notations>
                </notations>
            </note>
            <backup>
                <duration>4</duration>
            </backup>
            <note>
                <pitch>
                    <step>G</step>
                    <octave>3</octave>
                </pitch>
                <duration>2</duration>
                <voice>5</voice>
                <type>half</type>
                <staff>2</staff>
                <notations>
                </notations>
            </note>
            <note>
                <chord/>
                <pitch>
                    <step>C</step>
                    <octave>3</octave>
                </pitch>
                <duration>2</duration>
                <tie type="start"/>
                <voice>5</voice>
                <type>half</type>
                <staff>2</staff>
                <notations>
                    <tied type="start"/>
                </notations>
            </note>
            <note>
                <pitch>
                    <step>C</step>
                    <octave>3</octave>
                </pitch>
                <duration>2</duration>
                <tie type="stop"/>
                <voice>5</voice>
                <type>half</type>
                <staff>2</staff>
                <notations>
                    <tied type="stop"/>
                </notations>
            </note>
            <note>
                <chord/>
                <pitch>
                    <step>C</step>
                    <octave>4</octave>
                </pitch>
                <duration>2</duration>
                <voice>5</voice>
                <type>half</type>
                <staff>2</staff>
                <notations>
                </notations>
            </note>
        </measure>
        <measure number="10">
            <attributes>
                <divisions>1</divisions>
            </attributes>
            <note>
                <pitch>
                    <step>F</step>
                    <octave>4</octave>
                </pitch>
                <duration>2</duration>
                <voice>1</voice>
                <type>half</type>
                <staff>1</staff>
                <notations>
                </notations>
            </note>
            <note>
                <chord/>
                <pitch>
                    <step>D</step>
                    <octave>4</octave>
                </pitch>
                <duration>2</duration>
                <voice>1</voice>
                <type>half</type>
                <staff>1</staff>
                <notations>
                </notations>
            </note>
            <note>
                <pitch>
                    <step>G</step>
                    <octave>4</octave>
                </pitch>
                <duration>2</duration>
                <voice>1</voice>
                <type>half</type>
                <staff>1</staff>
                <notations>
                </notations>
            </note>
            <note>
                <chord/>
                <pitch>
                    <step>E</step>
                    <alter>-1</alter>
                    <octave>4</octave>
                </pitch>
                <duration>2</duration>
                <voice>1</voice>
                <type>half</type>
                <staff>1</staff>
                <notations>
                </notations>
            </note>
            <backup>
                <duration>4</duration>
            </backup>
            <note>
                <pitch>
                    <step>C</step>
                    <octave>3</octave>
                </pitch>
                <duration>4</duration>
                <voice>5</voice>
                <type>whole</type>
                <staff>2</staff>
                <notations>
                </notations>
            </note>
        </measure>
        <measure number="11">
            <attributes>
                <divisions>1</divisions>
            </attributes>
            <note>
                <pitch>
                    <step>E</step>
                    <octave>4</octave>
                </pitch>
                <duration>2</duration>
                <voice>1</voice>
                <type>half</type>
                <staff>1</staff>
                <notations>
                </notations>
            </note>
            <note>
                <chord/>
                <pitch>
                    <step>G</step>
                    <octave>4</octave>
                </pitch>
                <duration>2</duration>
                <voice>1</voice>
                <type>half</type>
                <staff>1</staff>
                <notations>
                </notations>
            </note>
            <note>
                <pitch>
                    <step>F</step>
                    <octave>4</octave>
                </pitch>
                <duration>2</duration>
                <voice>1</voice>
                <type>half</type>
                <staff>1</staff>
                <notations>
                </notations>
            </note>
            <note>
                <chord/>
                <pitch>
                    <step>A</step>
                    <alter>-1</alter>
                    <octave>4</octave>
                </pitch>
                <duration>2</duration>
                <voice>1</voice>
                <type>half</type>
                <staff>1</staff>
                <notations>
                </notations>
            </note>
            <backup>
                <duration>4</duration>
            </backup>
            <note>
                <pitch>
                    <step>C</step>
                    <octave>3</octave>
                </pitch>
                <duration>2</duration>
                <voice>5</voice>
                <type>half</type>
                <staff>2</staff>
                <notations>
                </notations>
            </note>
            <note>
                <pitch>
                    <step>B</step>
                    <octave>2</octave>
                </pitch>
                <duration>2</duration>
                <voice>5</voice>
                <type>half</type>
                <staff>2</staff>
                <notations>
                </notations>
            </note>
        </measure>
        <measure number="12">
            <attributes>
                <divisions>1</divisions>
            </attributes>
            <note>
                <pitch>
                    <step>E</step>
                    <octave>4</octave>
                </pitch>
                <duration>4</duration>
                <voice>1</voice>
                <type>whole</type>
                <staff>1</staff>
                <notations>
                </notations>
            </note>
            <note>
                <chord/>
                <pitch>
                    <step>G</step>
                    <octave>4</octave>
                </pitch>
                <duration>4</duration>
                <voice>1</voice>
                <type>whole</type>
                <staff>1</staff>
                <notations>
                </notations>
            </note>
            <backup>
                <duration>4</duration>
            </backup>
            <note>
                <pitch>
                    <step>C</step>
                    <octave>3</octave>
                </pitch>
                <duration>4</duration>
                <voice>5</voice>
                <type>whole</type>
                <staff>2</staff>
                <notations>
                </notations>
            </note>
        </measure>
        <measure number="13">
            <attributes>
                <divisions>1</divisions>
            </attributes>
            <note>
                <pitch>
                    <step>G</step>
                    <octave>4</octave>
                </pitch>
                <duration>2</duration>
                <voice>1</voice>
                <type>half</type>
                <staff>1</staff>
                <notations>
                </notations>
            </note>
            <note>
                <chord/>
                <pitch>
                    <step>A</step>
                    <alter>-1</alter>
                    <octave>3</octave>
                </pitch>
                <duration>2</duration>
                <tie type="start"/>
                <voice>1</voice>
                <type>half</type>
                <staff>1</staff>
                <notations>
                    <tied type="start"/>
                </notations>
            </note>
            <note>
                <pitch>
                    <step>A</step>
                    <alter>-1</alter>
                    <octave>3</octave>
                </pitch>
                <duration>2</duration>
                <tie type="stop"/>
                <voice>1</voice>
                <type>half</type>
                <staff>1</staff>
                <notations>
                    <tied type="stop"/>
                </notations>
            </note>
            <note>
                <chord/>
                <pitch>
                    <step>F</step>
                    <octave>4</octave>
                </pitch>
                <duration>2</duration>
                <voice>1</voice>
                <type>half</type>
                <staff>1</staff>
                <notations>
                </notations>
            </note>
            <backup>
                <duration>4</duration>
            </backup>
            <note>
                <pitch>
                    <step>F</step>
                    <octave>2</octave>
                </pitch>
                <duration>2</duration>
                <voice>5</voice>
                <type>half</type>
                <staff>2</staff>
                <notations>
                </notations>
            </note>
            <note>
                <pitch>
                    <step>B</step>
                    <alter>-1</alter>
                    <octave>2</octave>
                </pitch>
                <duration>2</duration>
                <voice>5</voice>
                <type>half</type>
                <staff>2</staff>
                <notations>
                </notations>
            </note>
        </measure>
        <measure number="14">
            <attributes>
                <divisions>1</divisions>
            </attributes>
            <note>
                <pitch>
                    <step>F</step>
                    <octave>4</octave>
                </pitch>
                <duration>2</duration>
                <voice>1</voice>
                <type>half</type>
                <staff>1</staff>
                <notations>
                </notations>
            </note>
            <note>
                <pitch>
                    <step>E</step>
                    <alter>-1</alter>
                    <octave>4</octave>
                </pitch>
                <duration>2</duration>
                <voice>1</voice>
                <type>half</type>
                <staff>1</staff>
                <notations>
                </notations>
            </note>
            <backup>
                <duration>4</duration>
            </backup>
            <note>
                <pitch>
                    <step>A</step>
                    <octave>2</octave>
                </pitch>
                <duration>4</duration>
                <voice>5</voice>
                <type>whole</type>
                <staff>2</staff>
                <notations>
                </notations>
            </note>
            <note>
                <chord/>
                <pitch>
                    <step>G</step>
                    <alter>-1</alter>
                    <octave>3</octave>
                </pitch>
                <duration>4</duration>
                <voice>5</voice>
                <type>whole</type>
                <staff>2</staff>
                <notations>
                </notations>
            </note>
        </measure>
        <measure number="15">
            <attributes>
                <divisions>1</divisions>
            </attributes>
            <note>
                <pitch>
                    <step>E</step>
                    <alter>-1</alter>
                    <octave>4</octave>
                </pitch>
                <duration>2</duration>
                <voice>1</voice>
                <type>half</type>
                <staff>1</staff>
                <notations>
                </notations>
            </note>
            <note>
                <pitch>
                    <step>D</step>
                    <octave>4</octave>
                </pitch>
                <duration>2</duration>
                <voice>1</voice>
                <type>half</type>
                <staff>1</staff>
                <notations>
                </notations>
            </note>
            <backup>
                <duration>4</duration>
            </backup>
            <note>
                <pitch>
                    <step>F</step>
                    <octave>3</octave>
                </pitch>
                <duration>2</duration>
                <voice>5</voice>
                <type>half</type>
                <staff>2</staff>
                <notations>
                </notations>
            </note>
            <note>
                <chord/>
                <pitch>
                    <step>B</step>
                    <alter>-1</alter>
                    <octave>2</octave>
                </pitch>
                <duration>2</duration>
                <tie type="start"/>
                <voice>5</voice>
                <type>half</type>
                <staff>2</staff>
                <notations>
                    <tied type="start"/>
                </notations>
            </note>
            <note>
                <pitch>
                    <step>G</step>
                    <octave>3</octave>
                </pitch>
                <duration>1</duration>
                <voice>5</voice>
                <type>quarter</type>
                <staff>2</staff>
                <notations>
                </notations>
            </note>
            <note>
                <chord/>
                <pitch>
                    <step>B</step>
                    <alter>-1</alter>
                    <octave>2</octave>
                </pitch>
                <duration>1</duration>
                <tie type="stop"/>
                <tie type="start"/>
                <voice>5</voice>
                <type>quarter</type>
                <staff>2</staff>
                <notations>
                    <tied type="stop"/>
                    <tied type="start"/>
                </notations>
            </note>
            <note>
                <pitch>
                    <step>B</step>
                    <alter>-1</alter>
                    <octave>2</octave>
                </pitch>
                <duration>1</duration>
                <tie type="stop"/>
                <voice>5</voice>
                <type>quarter</type>
                <staff>2</staff>
                <notations>
                    <tied type="stop"/>
                </notations>
            </note>
            <note>
                <chord/>
                <pitch>
                    <step>A</step>
                    <alter>-1</alter>
                    <octave>3</octave>
                </pitch>
                <duration>1</duration>
                <voice>5</voice>
                <type>quarter</type>
                <staff>2</staff>
                <notations>
                </notations>
            </note>
        </measure>
        <measure number="16">
            <attributes>
                <divisions>1</divisions>
            </attributes>
            <note>
                <pitch>
                    <step>E</step>
                    <alter>-1</alter>
                    <octave>4</octave>
                </pitch>
                <duration>4</duration>
                <voice>1</voice>
                <type>whole</type>
                <staff>1</staff>
                <notations>
                </notations>
            </note>
            <note>
                <chord/>
                <pitch>
                    <step>G</step>
                    <octave>3</octave>
                </pitch>
                <duration>4</duration>
                <voice>1</voice>
                <type>whole</type>
                <staff>1</staff>
                <notations>
                </notations>
            </note>
            <backup>
                <duration>4</duration>
            </backup>
            <note>
                <pitch>
                    <step>E</step>
                    <alter>-1</alter>
                    <octave>3</octave>
                </pitch>
                <duration>4</duration>
                <voice>5</voice>
                <type>whole</type>
                <staff>2</staff>
                <notations>
                </notations>
            </note>
            <note>
                <chord/>
                <pitch>
                    <step>E</step>
                    <alter>-1</alter>
                    <octave>2</octave>
                </pitch>
                <duration>4</duration>
                <voice>5</voice>
                <type>whole</type>
                <staff>2</staff>
                <notations>
                </notations>
            </note>
        </measure>
        <measure number="17">
            <attributes>
                <divisions>1</divisions>
            </attributes>
            <note>
                <pitch>
                    <step>G</step>
                    <octave>4</octave>
                </pitch>
                <duration>4</duration>
                <voice>1</voice>
                <type>whole</type>
                <staff>1</staff>
                <notations>
                </notations>
            </note>
            <backup>
                <duration>4</duration>
            </backup>
            <note>
                <pitch>
                    <step>E</step>
                    <alter>-1</alter>
                    <octave>3</octave>
                </pitch>
                <duration>4</duration>
                <voice>5</voice>
                <type>whole</type>
                <staff>2</staff>
                <notations>
                </notations>
            </note>
            <note>
                <chord/>
                <pitch>
                    <step>B</step>
                    <alter>-1</alter>
                    <octave>3</octave>
                </pitch>
                <duration>4</duration>
                <voice>5</voice>
                <type>whole</type>
                <staff>2</staff>
                <notations>
                </notations>
            </note>
        </measure>
        <measure number="18">
            <attributes>
                <divisions>1</divisions>
            </attributes>
            <note>
                <pitch>
                    <step>F</step>
                    <octave>4</octave>
                </pitch>
                <duration>2</duration>
                <voice>1</voice>
                <type>half</type>
                <staff>1</staff>
                <notations>
                </notations>
            </note>
            <note>
                <pitch>
                    <step>E</step>
                    <alter>-1</alter>
                    <octave>4</octave>
                </pitch>
                <duration>2</duration>
                <voice>1</voice>
                <type>half</type>
                <staff>1</staff>
                <notations>
                </notations>
            </note>
            <backup>
                <duration>4</duration>
            </backup>
            <note>
                <pitch>
                    <step>A</step>
                    <alter>-1</alter>
                    <octave>3</octave>
                </pitch>
                <duration>2</duration>
                <voice>5</voice>
                <type>half</type>
                <staff>2</staff>
                <notations>
                </notations>
            </note>
            <note>
                <chord/>
                <pitch>
                    <step>E</step>
                    <alter>-1</alter>
                    <octave>3</octave>
                </pitch>
                <duration>2</duration>
                <tie type="start"/>
                <voice>5</voice>
                <type>half</type>
                <staff>2</staff>
                <notations>
                    <tied type="start"/>
                </notations>
            </note>
            <note>
                <pitch>
                    <step>G</step>
                    <octave>3</octave>
                </pitch>
                <duration>2</duration>
                <voice>5</voice>
                <type>half</type>
                <staff>2</staff>
                <notations>
                </notations>
            </note>
            <note>
                <chord/>
                <pitch>
                    <step>E</step>
                    <alter>-1</alter>
                    <octave>3</octave>
                </pitch>
                <duration>2</duration>
                <tie type="stop"/>
                <voice>5</voice>
                <type>half</type>
                <staff>2</staff>
                <notations>
                    <tied type="stop"/>
                </notations>
            </note>
        </measure>
        <measure number="19">
            <attributes>
                <divisions>1</divisions>
            </attributes>
            <note>
                <pitch>
                    <step>B</step>
                    <alter>-1</alter>
                    <octave>3</octave>
                </pitch>
                <duration>1</duration>
                <voice>1</voice>
                <type>quarter</type>
                <staff>1</staff>
                <notations>
                </notations>
            </note>
            <note>
                <chord/>
                <pitch>
                    <step>G</step>
                    <octave>4</octave>
                </pitch>
                <duration>1</duration>
                <voice>1</voice>
                <type>quarter</type>
                <staff>1</staff>
                <notations>
                </notations>
            </note>
            <note>
                <pitch>
                    <step>A</step>
                    <alter>-1</alter>
                    <octave>3</octave>
                </pitch>
                <duration>1</duration>
                <voice>1</voice>
                <type>quarter</type>
                <staff>1</staff>
                <notations>
                </notations>
            </note>
            <note>
                <chord/>
                <pitch>
                    <step>F</step>
                    <octave>4</octave>
                </pitch>
                <duration>1</duration>
                <voice>1</voice>
                <type>quarter</type>
                <staff>1</staff>
                <notations>
                </notations>
            </note>
            <note>
                <pitch>
                    <step>G</step>
                    <octave>3</octave>
                </pitch>
                <duration>1</duration>
                <voice>1</voice>
                <type>quarter</type>
                <staff>1</staff>
                <notations>
                </notations>
            </note>
            <note>
                <chord/>
                <pitch>
                    <step>E</step>
                    <octave>4</octave>
                </pitch>
                <duration>1</duration>
                <voice>1</voice>
                <type>quarter</type>
                <staff>1</staff>
                <notations>
                </notations>
            </note>
            <note>
                <pitch>
                    <step>A</step>
                    <alter>-1</alter>
                    <octave>3</octave>
                </pitch>
                <duration>1</duration>
                <voice>1</voice>
                <type>quarter</type>
                <staff>1</staff>
                <notations>
                </notations>
            </note>
            <note>
                <chord/>
                <pitch>
                    <step>F</step>
                    <octave>4</octave>
                </pitch>
                <duration>1</duration>
                <voice>1</voice>
                <type>quarter</type>
                <staff>1</staff>
                <notations>
                </notations>
            </note>
            <backup>
                <duration>4</duration>
            </backup>
            <note>
                <pitch>
                    <step>B</step>
                    <alter>-1</alter>
                    <octave>2</octave>
                </pitch>
                <duration>4</duration>
                <voice>5</voice>
                <type>whole</type>
                <staff>2</staff>
                <notations>
                </notations>
            </note>
        </measure>
        <measure number="20">
            <attributes>
                <divisions>1</divisions>
            </attributes>
            <note>
                <pitch>
                    <step>D</step>
                    <octave>4</octave>
                </pitch>
                <duration>2</duration>
                <voice>1</voice>
                <type>half</type>
                <staff>1</staff>
                <notations>
                </notations>
            </note>
            <note>
                <pitch>
                    <step>F</step>
                    <octave>4</octave>
                </pitch>
                <duration>2</duration>
                <voice>1</voice>
                <type>half</type>
                <staff>1</staff>
                <notations>
                </notations>
            </note>
            <backup>
                <duration>4</duration>
            </backup>
            <note>
                <pitch>
                    <step>F</step>
                    <octave>3</octave>
                </pitch>
                <duration>2</duration>
                <voice>5</voice>
                <type>half</type>
                <staff>2</staff>
                <notations>
                </notations>
            </note>
            <note>
                <chord/>
                <pitch>
                    <step>B</step>
                    <alter>-1</alter>
                    <octave>2</octave>
                </pitch>
                <duration>2</duration>
                <voice>5</voice>
                <type>half</type>
                <staff>2</staff>
                <notations>
                </notations>
            </note>
            <note>
                <pitch>
                    <step>A</step>
                    <alter>-1</alter>
                    <octave>3</octave>
                </pitch>
                <duration>2</duration>
                <voice>5</voice>
                <type>half</type>
                <staff>2</staff>
                <notations>
                </notations>
            </note>
            <note>
                <chord/>
                <pitch>
                    <step>B</step>
                    <octave>2</octave>
                </pitch>
                <duration>2</duration>
                <voice>5</voice>
                <type>half</type>
                <staff>2</staff>
                <notations>
                </notations>
            </note>
        </measure>
        <measure number="21">
            <attributes>
                <divisions>1</divisions>
            </attributes>
            <note>
                <pitch>
                    <step>A</step>
                    <alter>-1</alter>
                    <octave>3</octave>
                </pitch>
                <duration>1</duration>
                <voice>1</voice>
                <type>quarter</type>
                <staff>1</staff>
                <notations>
                </notations>
            </note>
            <note>
                <chord/>
                <pitch>
                    <step>F</step>
                    <octave>4</octave>
                </pitch>
                <duration>1</duration>
                <voice>1</voice>
                <type>quarter</type>
                <staff>1</staff>
                <notations>
                </notations>
            </note>
            <note>
                <pitch>
                    <step>G</step>
                    <octave>3</octave>
                </pitch>
                <duration>1</duration>
                <voice>1</voice>
                <type>quarter</type>
                <staff>1</staff>
                <notations>
                </notations>
            </note>
            <note>
                <chord/>
                <pitch>
                    <step>E</step>
                    <alter>-1</alter>
                    <octave>4</octave>
                </pitch>
                <duration>1</duration>
                <voice>1</voice>
                <type>quarter</type>
                <staff>1</staff>
                <notations>
                </notations>
            </note>
            <note>
                <pitch>
                    <step>F</step>
                    <octave>3</octave>
                </pitch>
                <duration>1</duration>
                <voice>1</voice>
                <type>quarter</type>
                <staff>1</staff>
                <notations>
                </notations>
            </note>
            <note>
                <chord/>
                <pitch>
                    <step>D</step>
                    <octave>4</octave>
                </pitch>
                <duration>1</duration>
                <voice>1</voice>
                <type>quarter</type>
                <staff>1</staff>
                <notations>
                </notations>
            </note>
            <note>
                <pitch>
                    <step>G</step>
                    <octave>3</octave>
                </pitch>
                <duration>1</duration>
                <voice>1</voice>
                <type>quarter</type>
                <staff>1</staff>
                <notations>
                </notations>
            </note>
            <note>
                <chord/>
                <pitch>
                    <step>E</step>
                    <alter>-1</alter>
                    <octave>4</octave>
                </pitch>
                <duration>1</duration>
                <voice>1</voice>
                <type>quarter</type>
                <staff>1</staff>
                <notations>
                </notations>
            </note>
            <backup>
                <duration>4</duration>
            </backup>
            <note>
                <pitch>
                    <step>C</step>
                    <octave>3</octave>
                </pitch>
                <duration>4</duration>
                <voice>5</voice>
                <type>whole</type>
                <staff>2</staff>
                <notations>
                </notations>
            </note>
        </measure>
        <measure number="22">
            <attributes>
                <divisions>1</divisions>
            </attributes>
            <note>
                <pitch>
                    <step>D</step>
                    <octave>4</octave>
                </pitch>
                <duration>2</duration>
                <voice>1</voice>
                <type>half</type>
                <staff>1</staff>
                <notations>
                </notations>
            </note>
            <note>
                <pitch>
                    <step>C</step>
                    <octave>4</octave>
                </pitch>
                <duration>2</duration>
                <voice>1</voice>
                <type>half</type>
                <staff>1</staff>
                <notations>
                </notations>
            </note>
            <backup>
                <duration>4</duration>
            </backup>
            <note>
                <pitch>
                    <step>F</step>
                    <octave>3</octave>
                </pitch>
                <duration>2</duration>
                <voice>5</voice>
                <type>half</type>
                <staff>2</staff>
                <notations>
                </notations>
            </note>
            <note>
                <chord/>
                <pitch>
                    <step>A</step>
                    <alter>-1</alter>
                    <octave>2</octave>
                </pitch>
                <duration>2</duration>
                <tie type="start"/>
                <voice>5</voice>
                <type>half</type>
                <staff>2</staff>
                <notations>
                    <tied type="start"/>
                </notations>
            </note>
            <note>
                <pitch>
                    <step>A</step>
                    <alter>-1</alter>
                    <octave>2</octave>
                </pitch>
                <duration>2</duration>
                <tie type="stop"/>
                <voice>5</voice>
                <type>half</type>
                <staff>2</staff>
                <notations>
                    <tied type="stop"/>
                </notations>
            </note>
            <note>
                <chord/>
                <pitch>
                    <step>E</step>
                    <alter>-1</alter>
                    <octave>3</octave>
                </pitch>
                <duration>2</duration>
                <voice>5</voice>
                <type>half</type>
                <staff>2</staff>
                <notations>
                </notations>
            </note>
        </measure>
        <measure number="23">
            <attributes>
                <divisions>1</divisions>
            </attributes>
            <note>
                <pitch>
                    <step>C</step>
                    <octave>4</octave>
                </pitch>
                <duration>4</duration>
                <voice>1</voice>
                <type>whole</type>
                <staff>1</staff>
                <notations>
                </notations>
            </note>
            <backup>
                <duration>4</duration>
            </backup>
            <note>
                <pitch>
                    <step>G</step>
                    <octave>2</octave>
                </pitch>
                <duration>4</duration>
                <voice>5</voice>
                <type>whole</type>
                <staff>2</staff>
                <notations>
                </notations>
            </note>
            <note>
                <chord/>
                <pitch>
                    <step>E</step>
                    <alter>-1</alter>
                    <octave>3</octave>
                </pitch>
                <duration>4</duration>
                <voice>5</voice>
                <type>whole</type>
                <staff>2</staff>
                <notations>
                </notations>
            </note>
        </measure>
        <measure number="24">
            <attributes>
                <divisions>1</divisions>
            </attributes>
            <note>
                <pitch>
                    <step>B</step>
                    <octave>3</octave>
                </pitch>
                <duration>4</duration>
                <voice>1</voice>
                <type>whole</type>
                <staff>1</staff>
                <notations>
                </notations>
            </note>
            <backup>
                <duration>4</duration>
            </backup>
            <note>
                <pitch>
                    <step>G</step>
                    <octave>2</octave>
                </pitch>
                <duration>4</duration>
                <voice>5</voice>
                <type>whole</type>
                <staff>2</staff>
                <notations>
                </notations>
            </note>
            <note>
                <chord/>
                <pitch>
                    <step>D</step>
                    <octave>3</octave>
                </pitch>
                <duration>4</duration>
                <voice>5</voice>
                <type>whole</type>
                <staff>2</staff>
                <notations>
                </notations>
            </note>
        </measure>
        <measure number="25">
            <attributes>
                <divisions>1</divisions>
            </attributes>
            <note>
                <pitch>
                    <step>B</step>
                    <alter>-1</alter>
                    <octave>3</octave>
                </pitch>
                <duration>2</duration>
                <tie type="start"/>
                <voice>1</voice>
                <type>half</type>
                <staff>1</staff>
                <notations>
                    <tied type="start"/>
                </notations>
            </note>
            <note>
                <chord/>
                <pitch>
                    <step>G</step>
                    <octave>4</octave>
                </pitch>
                <duration>2</duration>
                <tie type="start"/>
                <voice>1</voice>
                <type>half</type>
                <staff>1</staff>
                <notations>
                    <tied type="start"/>
                </notations>
            </note>
            <note>
                <pitch>
                    <step>B</step>
                    <alter>-1</alter>
                    <octave>3</octave>
                </pitch>
                <duration>1</duration>
                <tie type="stop"/>
                <voice>1</voice>
                <type>quarter</type>
                <staff>1</staff>
                <notations>
                    <tied type="stop"/>
                </notations>
            </note>
            <note>
                <chord/>
                <pitch>
                    <step>G</step>
                    <octave>4</octave>
                </pitch>
                <duration>1</duration>
                <tie type="stop"/>
                <voice>1</voice>
                <type>quarter</type>
                <staff>1</staff>
                <notations>
                    <tied type="stop"/>
                </notations>
            </note>
            <note>
                <pitch>
                    <step>B</step>
                    <alter>-1</alter>
                    <octave>3</octave>
                </pitch>
                <duration>1</duration>
                <voice>1</voice>
                <type>quarter</type>
                <staff>1</staff>
                <notations>
                </notations>
            </note>
            <note>
                <chord/>
                <pitch>
                    <step>G</step>
                    <octave>4</octave>
                </pitch>
                <duration>1</duration>
                <voice>1</voice>
                <type>quarter</type>
                <staff>1</staff>
                <notations>
                </notations>
            </note>
            <backup>
                <duration>4</duration>
            </backup>
            <note>
                <pitch>
                    <step>E</step>
                    <alter>-1</alter>
                    <octave>3</octave>
                </pitch>
                <duration>4</duration>
                <voice>5</voice>
                <type>whole</type>
                <staff>2</staff>
                <notations>
                </notations>
            </note>
        </measure>
        <measure number="26">
            <attributes>
                <divisions>1</divisions>
            </attributes>
            <note>
                <pitch>
                    <step>D</step>
                    <alter>-1</alter>
                    <octave>4</octave>
                </pitch>
                <duration>1</duration>
                <voice>1</voice>
                <type>quarter</type>
                <staff>1</staff>
                <notations>
                </notations>
            </note>
            <note>
                <chord/>
                <pitch>
                    <step>B</step>
                    <alter>-1</alter>
                    <octave>4</octave>
                </pitch>
                <duration>1</duration>
                <voice>1</voice>
                <type>quarter</type>
                <staff>1</staff>
                <notations>
                </notations>
            </note>
            <note>
                <pitch>
                    <step>C</step>
                    <octave>4</octave>
                </pitch>
                <duration>1</duration>
                <voice>1</voice>
                <type>quarter</type>
                <staff>1</staff>
                <notations>
                </notations>
            </note>
            <note>
                <chord/>
                <pitch>
                    <step>A</step>
                    <alter>-1</alter>
                    <octave>4</octave>
                </pitch>
                <duration>1</duration>
                <voice>1</voice>
                <type>quarter</type>
                <staff>1</staff>
                <notations>
                </notations>
            </note>
            <note>
                <pitch>
                    <step>B</step>
                    <octave>3</octave>
                </pitch>
                <duration>1</duration>
                <voice>1</voice>
                <type>quarter</type>
                <staff>1</staff>
                <notations>
                </notations>
            </note>
            <note>
                <chord/>
                <pitch>
                    <step>G</step>
                    <octave>4</octave>
                </pitch>
                <duration>1</duration>
                <voice>1</voice>
                <type>quarter</type>
                <staff>1</staff>
                <notations>
                </notations>
            </note>
            <note>
                <pitch>
                    <step>C</step>
                    <octave>4</octave>
                </pitch>
                <duration>1</duration>
                <voice>1</voice>
                <type>quarter</type>
                <staff>1</staff>
                <notations>
                </notations>
            </note>
            <note>
                <chord/>
                <pitch>
                    <step>A</step>
                    <alter>-1</alter>
                    <octave>4</octave>
                </pitch>
                <duration>1</duration>
                <voice>1</voice>
                <type>quarter</type>
                <staff>1</staff>
                <notations>
                </notations>
            </note>
            <backup>
                <duration>4</duration>
            </backup>
            <note>
                <pitch>
                    <step>A</step>
                    <alter>-1</alter>
                    <octave>2</octave>
                </pitch>
                <duration>4</duration>
                <voice>5</voice>
                <type>whole</type>
                <staff>2</staff>
                <notations>
                </notations>
            </note>
        </measure>
        <measure number="27">
            <attributes>
                <divisions>1</divisions>
            </attributes>
            <note>
                <pitch>
                    <step>G</step>
                    <octave>4</octave>
                </pitch>
                <duration>4</duration>
                <voice>1</voice>
                <type>whole</type>
                <staff>1</staff>
                <notations>
                </notations>
            </note>
            <backup>
                <duration>4</duration>
            </backup>
            <note>
                <pitch>
                    <step>E</step>
                    <alter>-1</alter>
                    <octave>3</octave>
                </pitch>
                <duration>4</duration>
                <voice>5</voice>
                <type>whole</type>
                <staff>2</staff>
                <notations>
                </notations>
            </note>
            <note>
                <chord/>
                <pitch>
                    <step>B</step>
                    <alter>-1</alter>
                    <octave>3</octave>
                </pitch>
                <duration>4</duration>
                <voice>5</voice>
                <type>whole</type>
                <staff>2</staff>
                <notations>
                </notations>
            </note>
        </measure>
        <measure number="28">
            <attributes>
                <divisions>1</divisions>
            </attributes>
            <note>
                <pitch>
                    <step>G</step>
                    <octave>4</octave>
                </pitch>
                <duration>2</duration>
                <voice>1</voice>
                <type>half</type>
                <staff>1</staff>
                <notations>
                </notations>
            </note>
            <note>
                <pitch>
                    <step>F</step>
                    <octave>4</octave>
                </pitch>
                <duration>2</duration>
                <voice>1</voice>
                <type>half</type>
                <staff>1</staff>
                <notations>
                </notations>
            </note>
            <backup>
                <duration>4</duration>
            </backup>
            <note>
                <pitch>
                    <step>B</step>
                    <octave>2</octave>
                </pitch>
                <duration>4</duration>
                <voice>5</voice>
                <type>whole</type>
                <staff>2</staff>
                <notations>
                </notations>
            </note>
            <note>
                <chord/>
                <pitch>
                    <step>A</step>
                    <alter>-1</alter>
                    <octave>3</octave>
                </pitch>
                <duration>4</duration>
                <voice>5</voice>
                <type>whole</type>
                <staff>2</staff>
                <notations>
                </notations>
            </note>
        </measure>
        <measure number="29">
            <attributes>
                <divisions>1</divisions>
            </attributes>
            <note>
                <pitch>
                    <step>E</step>
                    <octave>4</octave>
                </pitch>
                <duration>4</duration>
                <voice>1</voice>
                <type>whole</type>
                <staff>1</staff>
                <notations>
                </notations>
            </note>
            <backup>
                <duration>4</duration>
            </backup>
            <note>
                <pitch>
                    <step>C</step>
                    <octave>3</octave>
                </pitch>
                <duration>4</duration>
                <voice>5</voice>
                <type>whole</type>
                <staff>2</staff>
                <notations>
                </notations>
            </note>
            <note>
                <chord/>
                <pitch>
                    <step>G</step>
                    <octave>3</octave>
                </pitch>
                <duration>4</duration>
                <voice>5</voice>
                <type>whole</type>
                <staff>2</staff>
                <notations>
                </notations>
            </note>
        </measure>
        <measure number="30">
            <attributes>
                <divisions>1</divisions>
            </attributes>
            <note>
                <pitch>
                    <step>F</step>
                    <octave>4</octave>
                </pitch>
                <duration>4</duration>
                <voice>1</voice>
                <type>whole</type>
                <staff>1</staff>
                <notations>
                </notations>
            </note>
            <backup>
                <duration>4</duration>
            </backup>
            <note>
                <pitch>
                    <step>F</step>
                    <octave>3</octave>
                </pitch>
                <duration>4</duration>
                <voice>5</voice>
                <type>whole</type>
                <staff>2</staff>
                <notations>
                </notations>
            </note>
            <note>
                <chord/>
                <pitch>
                    <step>A</step>
                    <alter>-1</alter>
                    <octave>2</octave>
                </pitch>
                <duration>4</duration>
                <voice>5</voice>
                <type>whole</type>
                <staff>2</staff>
                <notations>
                </notations>
            </note>
        </measure>
        <measure number="31">
            <attributes>
                <divisions>1</divisions>
            </attributes>
            <note>
                <pitch>
                    <step>E</step>
                    <alter>-1</alter>
                    <octave>4</octave>
                </pitch>
                <duration>2</duration>
                <voice>1</voice>
                <type>half</type>
                <staff>1</staff>
                <notations>
                </notations>
            </note>
            <note>
                <chord/>
                <pitch>
                    <step>G</step>
                    <alter>-1</alter>
                    <octave>3</octave>
                </pitch>
                <duration>2</duration>
                <voice>1</voice>
                <type>half</type>
                <staff>1</staff>
                <notations>
                </notations>
            </note>
            <note>
                <pitch>
                    <step>D</step>
                    <octave>4</octave>
                </pitch>
                <duration>1</duration>
                <voice>1</voice>
                <type>quarter</type>
                <staff>1</staff>
                <notations>
                </notations>
            </note>
            <note>
                <chord/>
                <pitch>
                    <step>E</step>
                    <alter>-1</alter>
                    <octave>3</octave>
                </pitch>
                <duration>1</duration>
                <tie type="start"/>
                <voice>1</voice>
                <type>quarter</type>
                <staff>1</staff>
                <notations>
                    <tied type="start"/>
                </notations>
            </note>
            <note>
                <pitch>
                    <step>C</step>
                    <octave>4</octave>
                </pitch>
                <duration>1</duration>
                <voice>1</voice>
                <type>quarter</type>
                <staff>1</staff>
                <notations>
                </notations>
            </note>
            <note>
                <chord/>
                <pitch>
                    <step>E</step>
                    <alter>-1</alter>
                    <octave>3</octave>
                </pitch>
                <duration>1</duration>
                <tie type="stop"/>
                <voice>1</voice>
                <type>quarter</type>
                <staff>1</staff>
                <notations>
                    <tied type="stop"/>
                </notations>
            </note>
            <backup>
                <duration>4</duration>
            </backup>
            <note>
                <pitch>
                    <step>A</step>
                    <alter>-1</alter>
                    <octave>2</octave>
                </pitch>
                <duration>4</duration>
                <voice>5</voice>
                <type>whole</type>
                <staff>2</staff>
                <notations>
                </notations>
            </note>
        </measure>
        <measure number="32">
            <attributes>
                <divisions>1</divisions>
            </attributes>
            <note>
                <pitch>
                    <step>E</step>
                    <alter>-1</alter>
                    <octave>3</octave>
                </pitch>
                <duration>2</duration>
                <voice>1</voice>
                <type>half</type>
                <staff>1</staff>
                <notations>
                </notations>
            </note>
            <note>
                <chord/>
                <pitch>
                    <step>C</step>
                    <octave>4</octave>
                </pitch>
                <duration>2</duration>
                <voice>1</voice>
                <type>half</type>
                <staff>1</staff>
                <notations>
                </notations>
            </note>
            <note>
                <pitch>
                    <step>D</step>
                    <octave>3</octave>
                </pitch>
                <duration>1</duration>
                <voice>1</voice>
                <type>quarter</type>
                <staff>1</staff>
                <notations>
                </notations>
            </note>
            <note>
                <chord/>
                <pitch>
                    <step>B</step>
                    <octave>3</octave>
                </pitch>
                <duration>1</duration>
                <voice>1</voice>
                <type>quarter</type>
                <staff>1</staff>
                <notations>
                </notations>
            </note>
            <note>
                <pitch>
                    <step>C</step>
                    <octave>3</octave>
                </pitch>
                <duration>1</duration>
                <voice>1</voice>
                <type>quarter</type>
                <staff>1</staff>
                <notations>
                </notations>
            </note>
            <note>
                <chord/>
                <pitch>
                    <step>A</step>
                    <octave>3</octave>
                </pitch>
                <duration>1</duration>
                <voice>1</voice>
                <type>quarter</type>
                <staff>1</staff>
                <notations>
                </notations>
            </note>
            <backup>
                <duration>4</duration>
            </backup>
            <note>
                <pitch>
                    <step>G</step>
                    <octave>2</octave>
                </pitch>
                <duration>4</duration>
                <voice>5</voice>
                <type>whole</type>
                <staff>2</staff>
                <notations>
                </notations>
            </note>
        </measure>
        <measure number="33">
            <attributes>
                <divisions>1</divisions>
            </attributes>
            <note>
                <pitch>
                    <step>B</step>
                    <octave>3</octave>
                </pitch>
                <duration>4</duration>
                <voice>1</voice>
                <type>whole</type>
                <staff>1</staff>
                <notations>
                </notations>
            </note>
            <backup>
                <duration>4</duration>
            </backup>
            <note>
                <pitch>
                    <step>D</step>
                    <octave>3</octave>
                </pitch>
                <duration>2</duration>
                <voice>5</voice>
                <type>half</type>
                <staff>2</staff>
                <notations>
                </notations>
            </note>
            <note>
                <chord/>
                <pitch>
                    <step>G</step>
                    <octave>2</octave>
                </pitch>
                <duration>2</duration>
                <tie type="start"/>
                <voice>5</voice>
                <type>half</type>
                <staff>2</staff>
                <notations>
                    <tied type="start"/>
                </notations>
            </note>
            <note>
                <pitch>
                    <step>E</step>
                    <alter>-1</alter>
                    <octave>3</octave>
                </pitch>
                <duration>1</duration>
                <voice>5</voice>
                <type>quarter</type>
                <staff>2</staff>
                <notations>
                </notations>
            </note>
            <note>
                <chord/>
                <pitch>
                    <step>G</step>
                    <octave>2</octave>
                </pitch>
                <duration>1</duration>
                <tie type="stop"/>
                <tie type="start"/>
                <voice>5</voice>
                <type>quarter</type>
                <staff>2</staff>
                <notations>
                    <tied type="stop"/>
                    <tied type="start"/>
                </notations>
            </note>
            <note>
                <pitch>
                    <step>F</step>
                    <octave>3</octave>
                </pitch>
                <duration>1</duration>
                <voice>5</voice>
                <type>quarter</type>
                <staff>2</staff>
                <notations>
                </notations>
            </note>
            <note>
                <chord/>
                <pitch>
                    <step>G</step>
                    <octave>2</octave>
                </pitch>
                <duration>1</duration>
                <tie type="stop"/>
                <voice>5</voice>
                <type>quarter</type>
                <staff>2</staff>
                <notations>
                    <tied type="stop"/>
                </notations>
            </note>
        </measure>
        <measure number="34">
            <attributes>
                <divisions>1</divisions>
            </attributes>
            <note>
                <pitch>
                    <step>G</step>
                    <octave>3</octave>
                </pitch>
                <duration>4</duration>
                <voice>1</voice>
                <type>whole</type>
                <staff>1</staff>
                <notations>
                </notations>
            </note>
            <note>
                <chord/>
                <pitch>
                    <step>E</step>
                    <octave>3</octave>
                </pitch>
                <duration>4</duration>
                <voice>1</voice>
                <type>whole</type>
                <staff>1</staff>
                <notations>
                </notations>
            </note>
            <note>
                <chord/>
                <pitch>
                    <step>C</step>
                    <octave>4</octave>
                </pitch>
                <duration>4</duration>
                <voice>1</voice>
                <type>whole</type>
                <staff>1</staff>
                <notations>
                </notations>
            </note>
            <backup>
                <duration>4</duration>
            </backup>
            <note>
                <pitch>
                    <step>C</step>
                    <octave>3</octave>
                </pitch>
                <duration>4</duration>
                <voice>5</voice>
                <type>whole</type>
                <staff>2</staff>
                <notations>
                </notations>
            </note>
            <note>
                <chord/>
                <pitch>
                    <step>C</step>
                    <octave>2</octave>
                </pitch>
                <duration>4</duration>
                <voice>5</voice>
                <type>whole</type>
                <staff>2</staff>
                <notations>
                </notations>
            </note>
        </measure>
    </part>
</score-partwise>